<svg width="41" height="24" viewBox="0 0 41 24" fill="none" xmlns="http://www.w3.org/2000/svg">
<path d="M32.9983 10L28.8733 14L26.9983 12.1818" stroke="#25265E" stroke-width="1.5" stroke-linecap="round" stroke-linejoin="round"/>
<path d="M9.99561 6.33544C10.3287 5.4162 11.296 4.86421 12.2853 5.02895C13.2745 5.19369 13.9971 6.02712 13.9956 7.00158C13.9956 8.33386 11.9373 9 11.9373 9" stroke="#25265E" stroke-width="1.5" stroke-linecap="round" stroke-linejoin="round"/>
<circle cx="11.9956" cy="11.6001" r="1" fill="#25265E"/>
<path fill-rule="evenodd" clip-rule="evenodd" d="M21.9956 13C21.9956 14.1046 21.053 15 19.8903 15H6.40577C6.2776 15 6.15432 15.0492 6.06139 15.1375L2.83998 18.1978C2.52149 18.5004 1.99561 18.2746 1.99561 17.8353V3C1.99561 1.89543 2.93816 1 4.10087 1H19.8903C21.053 1 21.9956 1.89543 21.9956 3V13Z" stroke="#25265E" stroke-width="2" stroke-linecap="round" stroke-linejoin="round"/>
<path d="M18.9983 15.4388V17.0078C18.9983 18.1131 19.9408 19.0091 21.1036 19.0091H35.5885C35.7164 19.0091 35.8395 19.0582 35.9324 19.1462L39.1543 22.2001C39.473 22.5021 39.9983 22.2762 39.9983 21.8372V6.98958C39.9983 5.88429 39.0557 5 37.893 5H22.0775" stroke="#25265E" stroke-width="2" stroke-linecap="round" stroke-linejoin="round"/>
</svg>
