<svg width="20" height="20" viewBox="0 0 20 20" fill="none" xmlns="http://www.w3.org/2000/svg">
<path d="M10 0C4.47687 0 0 4.47687 0 10C0 15.5231 4.47687 20 10 20C15.5225 20 20 15.5225 20 10C20 4.47687 15.5225 0 10 0ZM10 18.75C5.16752 18.75 1.25002 14.8325 1.25002 10C1.25002 5.16752 5.16752 1.25002 10 1.25002C14.8325 1.25002 18.75 5.16752 18.75 10C18.75 14.8325 14.8325 18.75 10 18.75Z" fill="#D3DCE6"/>
<path d="M14.5622 6.49581L8.13219 12.8683L5.45655 10.2458C5.2103 10.0014 4.81032 10.0014 4.56406 10.2458C4.31719 10.4902 4.31719 10.8858 4.56406 11.1296L7.68841 14.1914C7.94464 14.417 8.32779 14.442 8.5809 14.1914L15.4552 7.37957C15.7015 7.13581 15.7015 6.73957 15.4552 6.49581C15.2084 6.25205 14.8091 6.25205 14.5622 6.49581Z" fill="#D3DCE6"/>
</svg>
