<svg width="11" height="10" viewBox="0 0 11 10" fill="none" xmlns="http://www.w3.org/2000/svg">
<path d="M5.27364 6.59021L4.67438 6.72767C4.40948 6.78843 4.15699 6.58251 4.12502 6.31262C4.11358 6.21603 4.09745 6.11668 4.07475 6.02426C3.98653 5.66499 2.76835 5.03243 2.55291 4.20097C2.15604 2.66932 3.33582 0.721457 5.40911 0.685548C7.48239 0.649639 8.79244 2.59853 8.47481 4.10214C8.30226 4.91901 7.30025 5.40117 7.04121 5.90753C6.8811 6.22052 6.8752 6.7551 6.89405 7.11776C6.90531 7.33451 6.76341 7.53566 6.55129 7.58162L4.68816 7.98529" stroke="#FFC33D" stroke-linecap="round"/>
<path d="M5.04688 9.31471L6.55774 8.97339" stroke="#FFC33D" stroke-linecap="round"/>
</svg>
