<svg width="106" height="31" viewBox="0 0 106 31" fill="none" xmlns="http://www.w3.org/2000/svg">
<rect x="75" y="13" width="23" height="12" rx="1.375" stroke="url(#paint0_linear_6817_102093)" stroke-width="1.375"/>
<path d="M7.00391 13.4224C7.00391 13.2605 7.09008 13.1107 7.23012 13.0294L10.2021 11.3025C10.3537 11.2145 10.5436 11.3238 10.5436 11.4991V24.0044C10.5436 24.0913 10.4732 24.1618 10.3863 24.1618H7.16123C7.07434 24.1618 7.00391 24.0913 7.00391 24.0044V13.4224Z" fill="url(#paint1_linear_6817_102093)"/>
<path d="M7.00391 12.908C7.00391 12.8518 7.03386 12.7999 7.0825 12.7718L10.3076 10.9075C10.4125 10.8468 10.5436 10.9225 10.5436 11.0437L10.5436 17.4756C10.5436 17.6059 10.438 17.7116 10.3076 17.7116H7.23989C7.10956 17.7116 7.00391 17.6059 7.00391 17.4756V12.908Z" fill="url(#paint2_linear_6817_102093)"/>
<path d="M15.9476 10.7167L7.31985 15.6705C7.12442 15.7827 7.00391 15.9909 7.00391 16.2163V19.8943L16.3399 14.5041C16.5346 14.3917 16.6546 14.184 16.6546 13.9592V11.126C16.6546 10.7632 16.2622 10.5361 15.9476 10.7167Z" fill="url(#paint3_linear_6817_102093)"/>
<path fill-rule="evenodd" clip-rule="evenodd" d="M7.38428 19.6751C7.15784 19.7971 7.00394 20.0364 7.00394 20.3116C7.00394 20.3134 7.00395 20.3152 7.00396 20.3169L7.00393 20.3169L7.00393 19.4594L7.38428 19.6751Z" fill="#6501E5"/>
<path fill-rule="evenodd" clip-rule="evenodd" d="M16.3188 14.5165C16.3502 14.4417 16.3675 14.3596 16.3675 14.2734C16.3675 14.1395 16.3257 14.0154 16.2544 13.9134L16.6567 13.6857L16.6567 13.9581C16.6567 14.1827 16.5369 14.3904 16.3425 14.5028L16.3188 14.5165Z" fill="#9327FE"/>
<path d="M16.2597 13.9242C16.1519 13.5925 10.6192 9.87591 6.81115 7.30126C6.68267 7.21439 6.74489 7.01423 6.89998 7.01423L11.4354 7.0142C11.4673 7.0142 11.4985 7.02391 11.5248 7.04203L16.385 10.3951C16.5553 10.5126 16.657 10.7062 16.657 10.9131L16.657 13.6933L16.2597 13.9242Z" fill="#9327FE"/>
<path d="M18.9243 17.3594C18.7922 17.3194 18.5941 17.2928 18.396 17.2928C17.8677 17.2928 17.0355 17.5058 16.6921 18.2513V17.3594H14.7505V23.9756H16.7582V21.0868C16.7582 19.7689 17.4846 19.2897 18.2903 19.2897C18.4884 19.2897 18.6998 19.303 18.9243 19.3562V17.3594Z" fill="#0556F3"/>
<path d="M23.0763 22.3116C22.3234 22.3116 21.5969 21.7658 21.5969 20.6608C21.5969 19.5426 22.3234 19.0234 23.0763 19.0234C23.8424 19.0234 24.5556 19.5426 24.5556 20.6608C24.5556 21.7791 23.8424 22.3116 23.0763 22.3116ZM23.0763 17.1597C21.1214 17.1597 19.5893 18.6107 19.5893 20.6608C19.5893 22.7109 21.1214 24.1753 23.0763 24.1753C25.0443 24.1753 26.5633 22.7109 26.5633 20.6608C26.5633 18.6107 25.0443 17.1597 23.0763 17.1597Z" fill="#0556F3"/>
<path d="M27.3933 24.3484C27.5783 25.5332 28.7802 26.7047 30.669 26.7047C33.1258 26.7047 34.1824 25.0539 34.1824 23.1502V17.3594H32.2672V18.0649C32.0823 17.7188 31.5143 17.2395 30.4445 17.2395C28.6481 17.2395 27.3933 18.7305 27.3933 20.4745C27.3933 22.3116 28.701 23.6961 30.4445 23.6961C31.3955 23.6961 31.9634 23.31 32.2012 22.9506V23.2567C32.2012 24.4549 31.5804 24.9474 30.5766 24.9474C29.8237 24.9474 29.2954 24.4815 29.1633 23.8425L27.3933 24.3484ZM30.8143 21.9388C30.0086 21.9388 29.401 21.3797 29.401 20.4745C29.401 19.5692 30.0614 19.0101 30.8143 19.0101C31.5672 19.0101 32.2144 19.5692 32.2144 20.4745C32.2144 21.3797 31.6332 21.9388 30.8143 21.9388Z" fill="#0556F3"/>
<path d="M40.0525 17.3594C39.9204 17.3194 39.7223 17.2928 39.5242 17.2928C38.9958 17.2928 38.1637 17.5058 37.8203 18.2513V17.3594H35.8787V23.9756H37.8863V21.0868C37.8863 19.7689 38.6128 19.2897 39.4185 19.2897C39.6166 19.2897 39.828 19.303 40.0525 19.3562V17.3594Z" fill="#0556F3"/>
<path d="M40.9257 22.1518C40.9257 23.2035 41.7578 24.162 43.1975 24.162C44.0693 24.162 44.7033 23.7892 45.0467 23.2301C45.0467 23.6827 45.0995 23.9224 45.1127 23.9756H46.9223C46.9091 23.9091 46.843 23.4697 46.843 22.9506V19.7156C46.843 18.3578 46.0638 17.1597 43.9372 17.1597C42.0088 17.1597 41.137 18.411 41.0578 19.3562L42.8013 19.7156C42.8409 19.2231 43.224 18.7438 43.924 18.7438C44.558 18.7438 44.8882 19.0767 44.8882 19.4627C44.8882 19.689 44.7693 19.8621 44.4127 19.9153L42.8673 20.155C41.7842 20.3147 40.9257 20.9803 40.9257 22.1518ZM43.6862 22.6976C43.1315 22.6976 42.907 22.3648 42.907 22.0187C42.907 21.5528 43.224 21.3531 43.6466 21.2865L44.8882 21.0868V21.3797C44.8882 22.4048 44.2806 22.6976 43.6862 22.6976Z" fill="#0556F3"/>
<path d="M50.54 23.9756V20.1683C50.54 19.5692 50.9231 19.0234 51.6231 19.0234C52.3496 19.0234 52.6798 19.516 52.6798 20.1416V23.9756H54.661V20.155C54.661 19.5692 55.0441 19.0234 55.7573 19.0234C56.4706 19.0234 56.8008 19.516 56.8008 20.1416V23.9756H58.7424V19.689C58.7424 17.8918 57.5537 17.1597 56.3121 17.1597C55.4271 17.1597 54.7931 17.4525 54.278 18.198C53.9478 17.5457 53.2742 17.1597 52.3364 17.1597C51.6231 17.1597 50.7778 17.5324 50.4476 18.1182V17.3594H48.5324V23.9756H50.54Z" fill="#0556F3"/>
<path d="M70.6006 23.9756V22.2317H67.5231L70.5478 19.0234V17.3594H65.172V19.09H67.9854L65.0927 22.1918V23.9756H70.6006Z" fill="#0556F3"/>
<path d="M62.8631 23.9619H60.5547L61.2338 19.6244H60.5547V17.207H63.5381V19.6244L62.8631 23.9619Z" fill="#065AFF"/>
<path d="M63.5381 12.8395H60.5547V15.6997H63.5381V12.8395Z" fill="#065AFF"/>
<path d="M82.8815 17.9723C82.8815 16.7907 81.9587 15.8765 80.7254 15.8765H78.6468V22H80.0182V20.0595H80.7254C81.9587 20.0595 82.8815 19.1539 82.8815 17.9723ZM81.5533 17.9723C81.5533 18.4208 81.1997 18.7744 80.7081 18.7744H80.0182V17.1702H80.7081C81.1997 17.1702 81.5533 17.5152 81.5533 17.9723ZM83.7593 22H85.1306V19.473H85.3548L87.3902 22H89.0375L86.8728 19.3005C87.649 19.0245 88.0716 18.5157 88.0716 17.7222C88.0716 16.7045 87.3299 15.8765 86.1742 15.8765H83.7593V22ZM85.1306 18.3087V17.1357H86.0103C86.4157 17.1357 86.7089 17.3513 86.7089 17.7222C86.7089 18.0758 86.4157 18.3087 86.0103 18.3087H85.1306ZM92.0625 22.1035C93.8047 22.1035 95.2278 20.6804 95.2278 18.9383C95.2278 17.1961 93.8047 15.773 92.0625 15.773C90.3118 15.773 88.8973 17.1961 88.8973 18.9383C88.8973 20.6804 90.3118 22.1035 92.0625 22.1035ZM92.0625 20.7753C91.0621 20.7753 90.2773 19.9301 90.2773 18.9383C90.2773 17.9464 91.0621 17.1012 92.0625 17.1012C93.0544 17.1012 93.8392 17.9464 93.8392 18.9383C93.8392 19.9301 93.0544 20.7753 92.0625 20.7753Z" fill="url(#paint4_linear_6817_102093)"/>
<defs>
<linearGradient id="paint0_linear_6817_102093" x1="86.5" y1="15.0455" x2="86.5" y2="25" gradientUnits="userSpaceOnUse">
<stop stop-color="#9327FE"/>
<stop offset="1" stop-color="#6501E5"/>
</linearGradient>
<linearGradient id="paint1_linear_6817_102093" x1="8.77377" y1="22.805" x2="8.77377" y2="16.833" gradientUnits="userSpaceOnUse">
<stop stop-color="#00A3FF"/>
<stop offset="1" stop-color="#0597EA"/>
</linearGradient>
<linearGradient id="paint2_linear_6817_102093" x1="8.77377" y1="17.025" x2="8.77377" y2="14.003" gradientUnits="userSpaceOnUse">
<stop stop-color="#00A3FF"/>
<stop offset="1" stop-color="#0597EA"/>
</linearGradient>
<linearGradient id="paint3_linear_6817_102093" x1="10.0494" y1="15.9417" x2="17.3136" y2="11.8662" gradientUnits="userSpaceOnUse">
<stop stop-color="#6501E5"/>
<stop offset="1" stop-color="#5F01D8"/>
</linearGradient>
<linearGradient id="paint4_linear_6817_102093" x1="87" y1="14.813" x2="87" y2="23.6364" gradientUnits="userSpaceOnUse">
<stop stop-color="#9327FE"/>
<stop offset="1" stop-color="#6501E5"/>
</linearGradient>
</defs>
</svg>
