<svg width="12" height="12" viewBox="0 0 12 12" fill="none" xmlns="http://www.w3.org/2000/svg">
<path fill-rule="evenodd" clip-rule="evenodd" d="M9.72767 4.97751C9.94195 4.35529 9.85624 3.68862 9.55624 3.15528C9.08481 2.31084 8.14195 1.8664 7.24195 2.08862C6.72767 1.51084 5.95624 1.24417 5.18481 1.37751C4.41338 1.55528 3.81338 2.13306 3.55624 2.88862C2.95624 3.02195 2.44195 3.42195 2.14195 3.95529C1.67052 4.79973 1.75624 5.8664 2.39909 6.57751C2.18481 7.19973 2.27052 7.8664 2.57052 8.39973C3.04195 9.24418 3.98481 9.68862 4.88481 9.4664C5.31338 9.95529 5.87052 10.222 6.51338 10.222C7.45624 10.222 8.27052 9.59973 8.57052 8.6664C9.17052 8.53306 9.68481 8.13306 9.98481 7.59973C10.4562 6.75529 10.3705 5.68862 9.72767 4.97751ZM6.51338 9.64418C6.12767 9.64418 5.78481 9.51084 5.48481 9.24417L5.52767 9.19973L7.24195 8.17751C7.32767 8.13306 7.37052 8.04417 7.37052 7.91084V5.42195L8.0991 5.8664V7.95529C8.0991 8.88862 7.41338 9.64418 6.51338 9.64418ZM3.04195 8.08862C2.87052 7.73306 2.78481 7.37751 2.87052 6.97751L2.91338 7.02195L4.62766 8.04417C4.71338 8.08862 4.79909 8.08862 4.92766 8.04417L7.02767 6.79973V7.64418C7.02767 7.64418 7.02767 7.64417 7.02767 7.68862L5.31338 8.71084C4.49909 9.15529 3.51338 8.88862 3.04195 8.08862ZM2.61338 4.2664C2.78481 3.91084 3.08481 3.68862 3.47052 3.55529V5.64417C3.47052 5.73306 3.51338 5.82195 3.59909 5.91084L5.65624 7.15529L4.92766 7.59973C4.92766 7.59973 4.92766 7.59973 4.88481 7.59973L3.17052 6.57751C2.44195 6.04417 2.18481 5.02195 2.61338 4.2664ZM8.52767 5.68862L6.47052 4.44417L7.19909 3.99973C7.19909 3.99973 7.19909 3.99973 7.24195 3.99973L8.95624 5.02195C9.51338 5.33306 9.81338 5.95529 9.77052 6.62195C9.72767 7.24418 9.2991 7.82195 8.74195 8.04417V5.95529C8.6991 5.82195 8.61338 5.73306 8.52767 5.68862ZM9.25624 4.57751L9.21338 4.53306L7.49909 3.51084C7.41338 3.4664 7.28481 3.4664 7.19909 3.51084L5.14195 4.75529V3.91084C5.14195 3.91084 5.14195 3.91084 5.14195 3.8664L6.85624 2.84417C7.41338 2.53306 8.05624 2.53306 8.57052 2.93306C9.08481 3.28862 9.34195 3.91084 9.25624 4.57751ZM4.75624 6.08862L4.02766 5.64417V3.55529C4.02766 2.88862 4.37052 2.31084 4.97052 2.04417C5.52766 1.77751 6.21338 1.8664 6.68481 2.2664L6.64195 2.31084L4.92766 3.33306C4.84195 3.37751 4.79909 3.4664 4.79909 3.59973L4.75624 6.08862ZM5.14195 5.19973L6.08481 4.6664L7.02767 5.19973V6.31084L6.08481 6.84418L5.14195 6.31084V5.19973Z" fill="white" fill-opacity="0.4"/>
</svg>
